<svg width="60" height="60" viewBox="0 0 54 56" fill="none" xmlns="http://www.w3.org/2000/svg">
<path d="M27.0001 -6.10352e-05C27.8533 0.0010815 28.706 0.0372819 29.556 0.108441C32.265 0.332444 34.2558 2.25747 34.8756 4.51501L35.9257 8.38957C35.9913 8.62057 36.2137 8.94258 36.6986 9.17358C37.5409 9.57259 38.3539 10.0241 39.1342 10.5246C39.5827 10.8116 39.9837 10.8396 40.2244 10.7731L44.246 9.71259C46.5941 9.09658 49.3213 9.78609 50.8819 11.9176C51.8663 13.2651 52.7268 14.6897 53.4487 16.1807C54.5972 18.5432 53.8534 21.1578 52.1215 22.7993L49.1536 25.6203C48.975 25.7883 48.7963 26.1348 48.8328 26.6494C48.8911 27.5489 48.8911 28.4519 48.8328 29.3514C48.7963 29.8659 48.9713 30.2124 49.1536 30.3804L52.1215 33.2015C53.8534 34.843 54.5972 37.4575 53.4487 39.8201C52.7253 41.3097 51.8664 42.7351 50.8819 44.0796C49.3213 46.2147 46.5941 46.9042 44.246 46.2847L40.228 45.2277C39.9837 45.1611 39.5827 45.1892 39.1342 45.4762C38.3539 45.9769 37.5403 46.4282 36.6986 46.8272C36.2137 47.0582 35.9913 47.3802 35.9293 47.6112L34.8719 51.4822C34.2594 53.7433 32.265 55.6683 29.556 55.8923C27.8553 56.0358 26.1448 56.0358 24.4442 55.8923C21.7351 55.6683 19.7444 53.7433 19.1282 51.4822L18.0745 47.6112C18.0088 47.3802 17.7864 47.0582 17.3015 46.8272C16.459 46.4298 15.6453 45.9784 14.8659 45.4762C14.4175 45.1892 14.0164 45.1611 13.7758 45.2277L9.75413 46.2882C7.40606 46.9042 4.67879 46.2147 3.11827 44.0831C2.1358 42.7361 1.27696 41.3097 0.551437 39.8201C-0.597076 37.4575 0.146723 34.843 1.87496 33.2015L4.84651 30.3804C5.02882 30.2124 5.20383 29.8659 5.16737 29.3514C5.10903 28.4516 5.10903 27.5492 5.16737 26.6494C5.20383 26.1348 5.02882 25.7883 4.84651 25.6203L1.87496 22.7993C0.146723 21.1578 -0.597076 18.5432 0.551437 16.1807C1.27381 14.6906 2.13281 13.2651 3.11827 11.9211C4.67879 9.78609 7.40606 9.09658 9.75413 9.71609L13.7721 10.7731C14.0164 10.8396 14.4175 10.8116 14.8659 10.5246C15.6462 10.0241 16.4593 9.57259 17.3015 9.17358C17.7864 8.94258 18.0088 8.62057 18.0708 8.38957L19.1282 4.51851C19.7407 2.25747 21.7351 0.332444 24.4442 0.104941C25.2864 0.0349395 26.1396 -6.10352e-05 27.0001 -6.10352e-05ZM24.9182 5.33752C24.7869 5.34802 24.5244 5.46352 24.4186 5.84853L23.3649 9.71609C22.829 11.6796 21.3632 13.1006 19.7261 13.8777C19.0954 14.1787 18.4865 14.5182 17.9031 14.8927C16.3827 15.8657 14.3664 16.3732 12.3283 15.8377L8.30664 14.7772C7.90922 14.6722 7.66858 14.8332 7.59565 14.9347C6.79352 16.0267 6.09347 17.1887 5.50645 18.3997C5.45541 18.5082 5.42989 18.7847 5.72157 19.0647L8.69312 21.8858C10.1917 23.3068 10.7422 25.2353 10.6255 26.9819C10.5818 27.6602 10.5818 28.3405 10.6255 29.0189C10.7422 30.7654 10.1917 32.694 8.69312 34.115L5.72157 36.936C5.42624 37.216 5.45541 37.4925 5.50645 37.601C6.09712 38.812 6.79352 39.9706 7.59565 41.0626C7.66858 41.1676 7.90557 41.3286 8.30664 41.2236L12.3246 40.1631C14.3664 39.6276 16.3827 40.1351 17.9031 41.1081C18.4901 41.4826 19.099 41.8221 19.7298 42.1231C21.3596 42.9001 22.829 44.3246 23.3649 46.2847L24.4186 50.1522C24.5244 50.5337 24.7869 50.6527 24.9182 50.6632C26.3035 50.7787 27.6966 50.7787 29.082 50.6632C29.2132 50.6527 29.4757 50.5372 29.5815 50.1522L30.6352 46.2847C31.1712 44.3211 32.6369 42.9001 34.274 42.1231C34.9048 41.8221 35.5136 41.4826 36.097 41.1081C37.6174 40.1351 39.6337 39.6276 41.6719 40.1631L45.6935 41.2236C46.0909 41.3251 46.3316 41.1676 46.4045 41.0661C47.2066 39.9706 47.903 38.812 48.4937 37.601C48.5447 37.4925 48.5702 37.216 48.2786 36.936L45.307 34.115C43.8085 32.694 43.2579 30.7654 43.3746 29.0189C43.4183 28.3405 43.4183 27.6602 43.3746 26.9819C43.2579 25.2353 43.8085 23.3068 45.307 21.8858L48.2786 19.0647C48.5739 18.7847 48.5447 18.5082 48.4937 18.3997C47.9051 17.1889 47.206 16.0305 46.4045 14.9382C46.3316 14.8332 46.0946 14.6722 45.6935 14.7772L41.6755 15.8377C39.6337 16.3732 37.6174 15.8657 36.097 14.8927C35.5118 14.5166 34.9016 14.1775 34.2703 13.8777C32.6405 13.1006 31.1712 11.6761 30.6352 9.71609L29.5815 5.84853C29.4757 5.46352 29.2132 5.34802 29.082 5.33752C27.6966 5.22204 26.3035 5.22204 24.9182 5.33752ZM37.9383 28.0004C37.9383 30.7852 36.7859 33.456 34.7346 35.4251C32.6832 37.3943 29.9011 38.5005 27.0001 38.5005C24.0991 38.5005 21.3169 37.3943 19.2656 35.4251C17.2143 33.456 16.0618 30.7852 16.0618 28.0004C16.0618 25.2156 17.2143 22.5448 19.2656 20.5756C21.3169 18.6065 24.0991 17.5002 27.0001 17.5002C29.9011 17.5002 32.6832 18.6065 34.7346 20.5756C36.7859 22.5448 37.9383 25.2156 37.9383 28.0004ZM32.4692 28.0004C32.4687 26.6075 31.8918 25.2719 30.8655 24.2873C29.8391 23.3027 28.4474 22.7498 26.9964 22.7503C25.5454 22.7508 24.1541 23.3045 23.1284 24.2898C22.1028 25.275 21.5268 26.611 21.5273 28.0039C21.5278 29.3968 22.1047 30.7324 23.131 31.717C23.6392 32.2045 24.2424 32.5911 24.9063 32.8549C25.5701 33.1186 26.2816 33.2542 27.0001 33.254C27.7185 33.2537 28.4299 33.1177 29.0936 32.8535C29.7572 32.5894 30.3602 32.2023 30.8681 31.7145C31.3759 31.2267 31.7787 30.6476 32.0534 30.0103C32.3281 29.373 32.4694 28.6901 32.4692 28.0004Z" fill="white"/>
</svg>
