<svg width="50" height="67" viewBox="0 0 50 67" fill="none" xmlns="http://www.w3.org/2000/svg">
<path d="M22.1562 30.9406L6.80383 29.4269C4.98759 29.2478 3.36648 30.5991 3.1846 32.4437L0.329458 61.4007C0.14758 63.2454 1.47357 64.8872 3.28981 65.0663L18.6422 66.58C20.4584 66.7591 22.0795 65.4078 22.2614 63.5632L25.1166 34.6062C25.2984 32.7616 23.9724 31.1197 22.1562 30.9406ZM11.1856 63.5957C9.97251 63.4761 9.09057 62.3841 9.21205 61.152C9.33353 59.9199 10.4118 59.0212 11.6249 59.1408C12.838 59.2604 13.7199 60.3524 13.5984 61.5845C13.477 62.8166 12.3987 63.7153 11.1856 63.5957Z" fill="black"/>
<path d="M29.6689 21.7658L29.7468 21.8247C30.8845 22.684 31.8171 23.5881 32.5444 24.5372C33.2717 25.4862 33.8291 26.4171 34.2167 27.3299C34.6095 28.2466 34.8671 29.0938 34.9895 29.8716C35.1171 30.6532 35.1429 31.305 35.0669 31.8269L33.9646 31.4717C33.9623 30.9886 33.8684 30.4323 33.683 29.8027C33.5028 29.1771 33.2063 28.5004 32.7933 27.7724C32.3856 27.0484 31.8451 26.3057 31.1719 25.5443C30.4934 24.779 29.6607 24.0236 28.6736 23.2782L28.5645 23.1958C27.5774 22.4503 26.6216 21.8631 25.6973 21.4342C24.7677 21.0014 23.8951 20.6932 23.0793 20.5094C22.2674 20.3205 21.5359 20.225 20.8849 20.2228C20.2326 20.2115 19.6882 20.2572 19.2516 20.3599L18.6006 19.391C19.0818 19.1751 19.7157 19.0216 20.5025 18.9305C21.2841 18.8355 22.1694 18.8514 23.1586 18.9785C24.1478 19.1055 25.1983 19.3889 26.3101 19.8288C27.4167 20.2648 28.5363 20.9105 29.6689 21.7658ZM33.6158 14.6212L33.7093 14.6918C35.0746 15.7229 36.1937 16.8079 37.0664 17.9468C37.9392 19.0857 38.6081 20.2027 39.0732 21.2981C39.5445 22.3981 39.8536 23.4147 40.0005 24.348C40.1536 25.2861 40.1846 26.0682 40.0935 26.6945L38.7707 26.2682C38.7679 25.6885 38.6553 25.0209 38.4328 24.2655C38.2166 23.5147 37.8607 22.7026 37.3652 21.8291C36.8759 20.9602 36.2273 20.069 35.4194 19.1554C34.6053 18.237 33.606 17.3305 32.4215 16.436L32.2905 16.3371C31.106 15.4425 29.9591 14.7379 28.8499 14.2232C27.7345 13.7039 26.6873 13.334 25.7083 13.1135C24.7341 12.8868 23.8563 12.7722 23.0751 12.7695C22.2923 12.756 21.639 12.8108 21.1151 12.9341L20.3339 11.7713C20.9113 11.5123 21.6721 11.3281 22.6162 11.2188C23.5541 11.1047 24.6165 11.1239 25.8035 11.2763C26.9905 11.4287 28.2511 11.7689 29.5853 12.2968C30.9132 12.82 32.2567 13.5948 33.6158 14.6212Z" fill="black"/>
</svg>
