<svg width="293" height="163" viewBox="0 0 293 163" fill="none" xmlns="http://www.w3.org/2000/svg">
<path fill-rule="evenodd" clip-rule="evenodd" d="M50.5577 31.2794C70.4802 11.9269 98.9958 0.0139976 130.636 0.412681C162.276 0.811365 190.57 13.5198 209.911 33.2874L128.628 159.766L50.5577 31.2794ZM103.746 23.9807C93.9974 23.8579 85.9305 30.9283 85.82 39.6927C85.7096 48.4572 93.5958 55.7286 103.345 55.8514C113.094 55.9743 121.161 48.9039 121.271 40.1394C121.382 31.375 113.496 24.1035 103.746 23.9807ZM111.806 87.8338C111.696 96.5983 119.582 103.87 129.331 103.993C139.08 104.115 147.147 97.045 147.257 88.2805C147.368 79.5161 139.482 72.2446 129.733 72.1218C119.983 71.999 111.917 79.0694 111.806 87.8338ZM10.9141 129.714L11.3359 129.71L6.44033 153.589L11.6081 153.545L16.3868 130.388C17.7367 130.646 18.8106 130.837 19.6085 130.959C20.4064 131.081 21.198 131.139 21.9831 131.132C23.4362 131.12 24.5287 130.741 25.2607 129.997C26.0044 129.252 26.3989 128.094 26.4442 126.524C25.9071 126.751 25.2758 126.938 24.5505 127.085C23.8251 127.231 23.064 127.308 22.2672 127.315C21.6227 127.32 21.0893 127.301 20.667 127.258C19.7994 127.207 18.8961 127.097 17.9571 126.93C17.3939 126.841 16.9363 126.78 16.5845 126.748C15.4583 126.617 14.28 126.556 13.0496 126.567C10.9051 126.585 9.04405 126.853 7.46635 127.37C5.90036 127.887 4.61149 128.607 3.59974 129.53C2.6577 130.382 1.95708 131.372 1.49787 132.501C1.05029 133.618 0.831755 134.798 0.842274 136.04C0.852797 137.282 1.19441 138.181 1.86712 138.738C2.46912 139.249 3.42049 139.498 4.72122 139.487C4.72053 139.405 4.6964 139.324 4.64883 139.242C4.57753 139.125 4.51779 138.991 4.46963 138.839C4.3018 138.395 4.21471 137.798 4.20836 137.048C4.18543 134.341 4.81937 132.397 6.11018 131.214C7.18003 130.232 8.78132 129.732 10.9141 129.714ZM19.2269 152.32C20.2069 153.179 21.5875 153.601 23.3686 153.586C24.4702 153.577 25.511 153.316 26.491 152.804C27.4711 152.291 28.338 151.563 29.0918 150.619C29.857 149.652 30.4801 148.498 30.961 147.158C31.4417 145.806 31.7455 144.315 31.8723 142.685C32.9625 142.494 33.9735 142.206 34.9055 141.82L32.5605 153.367L37.7458 153.323L40.0913 141.754C40.3991 140.732 40.7674 139.944 41.1963 139.389C41.7065 138.741 42.2662 138.414 42.8756 138.408C43.7427 138.401 44.1815 139.013 44.1919 140.243C44.1962 140.747 44.1309 141.345 43.9962 142.038C43.873 142.718 43.6816 143.634 43.4218 144.785C43.1618 145.912 42.9645 146.834 42.8299 147.55C42.7071 148.266 42.6479 148.893 42.6525 149.432C42.6621 150.569 42.9806 151.498 43.6078 152.219C44.3298 153.057 45.4349 153.469 46.9231 153.457C48.1769 153.446 49.2812 153.062 50.2357 152.304C50.8447 151.823 51.4047 151.181 51.9156 150.38C52.0855 151.211 52.4281 151.879 52.9435 152.386C53.6172 153.06 54.5283 153.392 55.6767 153.383C56.4032 153.376 57.0818 153.248 57.7125 152.996C58.5301 152.673 59.2872 152.121 59.9838 151.342L59.5607 153.279C57.8895 153.821 56.5764 154.453 55.6216 155.176C54.3525 156.159 53.7237 157.331 53.7352 158.69C53.7401 159.264 53.8498 159.767 54.0644 160.199C54.2791 160.643 54.5752 161.009 54.9527 161.299C55.3067 161.589 55.7246 161.802 56.2062 161.939C56.6997 162.087 57.2276 162.159 57.7901 162.154C59.2901 162.141 60.5349 161.756 61.5246 160.997C62.8869 159.955 63.7868 158.283 64.2244 155.982L64.7473 153.376C66.127 153.013 67.2821 152.405 68.2124 151.554C69.4799 150.383 70.4268 148.728 71.0533 146.59L69.5416 146.603C69.0856 148.107 68.4919 149.266 67.7605 150.081C67.0872 150.837 66.1838 151.407 65.0503 151.791L68.477 135.063L63.2917 135.106L60.8779 146.905C60.581 147.833 60.2178 148.539 59.7883 149.023C59.2892 149.59 58.7233 149.876 58.0905 149.881C57.7038 149.885 57.4211 149.723 57.2426 149.396C57.088 149.128 57.0087 148.766 57.0048 148.309C57.0022 147.992 57.0347 147.687 57.1026 147.394L59.5828 135.138L54.3975 135.182L52.052 146.751C51.6277 147.844 51.2299 148.615 50.8587 149.064C50.3715 149.654 49.7705 149.952 49.0556 149.958C48.5283 149.962 48.1522 149.837 47.9274 149.581C47.7142 149.313 47.6055 148.939 47.6015 148.459C47.5989 148.154 47.6424 147.755 47.732 147.262C47.8778 146.487 48.1151 145.448 48.4439 144.145C48.6248 143.37 48.7547 142.788 48.8334 142.401C49.1268 141.063 49.2699 139.977 49.2629 139.145C49.2512 137.763 48.8674 136.729 48.1116 136.044C47.4031 135.417 46.4395 135.109 45.2208 135.119C44.5294 135.125 43.8859 135.247 43.2903 135.487C42.4844 135.81 41.7332 136.367 41.0368 137.158L41.4077 135.292L36.2223 135.336L35.2434 140.156C35.226 140.164 35.2085 140.171 35.1911 140.179C34.105 140.633 33.1636 140.864 32.3667 140.871L32.1558 140.872C32.1089 140.873 32.0502 140.861 31.9797 140.839L31.9794 140.803C31.947 136.972 30.3898 135.069 27.3079 135.095C25.058 135.114 23.1253 135.927 21.51 137.535C20.1734 138.847 19.1511 140.596 18.443 142.781C18.1343 143.698 17.9076 144.608 17.763 145.512C17.6182 146.404 17.5489 147.219 17.5551 147.957C17.5717 149.914 18.129 151.368 19.2269 152.32ZM26.061 149.766C25.6306 150.145 25.2045 150.336 24.7826 150.339C24.4193 150.342 24.126 150.304 23.9027 150.224C23.6792 150.132 23.4963 149.981 23.3539 149.771C23.1998 149.562 23.086 149.27 23.0125 148.895C22.9507 148.521 22.9173 148.035 22.9123 147.437C22.9018 146.207 23.1126 144.799 23.5445 143.213C23.9878 141.592 24.5622 140.228 25.2677 139.12C26.0308 137.895 26.8166 137.279 27.6252 137.272C27.8712 137.27 28.0707 137.303 28.2237 137.372C28.3883 137.441 28.5241 137.557 28.6309 137.72C28.8329 138.047 28.9606 138.591 29.0139 139.352C28.6637 139.507 28.3903 139.75 28.1939 140.08C27.9974 140.409 27.9013 140.82 27.9055 141.313C27.9089 141.711 27.9819 142.039 28.1248 142.295C28.2793 142.552 28.5327 142.725 28.885 142.816C28.7533 143.86 28.5506 144.84 28.2771 145.757C28.0036 146.673 27.6764 147.473 27.2955 148.156C26.9145 148.839 26.503 149.376 26.061 149.766ZM58.0936 158.548C57.6879 159.079 57.3034 159.346 56.9401 159.349C56.5534 159.352 56.2477 159.226 56.0228 158.97C55.8218 158.76 55.72 158.498 55.7173 158.181C55.7117 157.513 56.064 156.907 56.7742 156.362C57.3097 155.935 58.1206 155.512 59.2069 155.093L59.0048 156.132C58.7913 157.223 58.4876 158.029 58.0936 158.548ZM74.6606 132.496C74.3832 132.956 73.989 133.451 73.4779 133.983L74.0272 134.506C75.2975 133.663 76.3378 132.658 77.1483 131.491C77.5071 130.961 77.7839 130.431 77.9786 129.902C78.1733 129.373 78.2688 128.88 78.2649 128.423C78.2618 128.059 78.1946 127.726 78.0631 127.422C77.9432 127.107 77.771 126.839 77.5465 126.618C77.3102 126.398 77.0334 126.23 76.716 126.115C76.3985 125.989 76.064 125.928 75.7125 125.931C75.0094 125.937 74.4371 126.176 73.9958 126.648C73.7868 126.873 73.6191 127.144 73.4929 127.461C73.3784 127.779 73.3227 128.113 73.3256 128.465C73.3292 128.886 73.4084 129.237 73.5631 129.517C73.7295 129.797 73.9484 130.047 74.2198 130.268C74.2907 130.326 74.3969 130.418 74.5386 130.546C74.692 130.662 74.8219 130.784 74.9285 130.912C75.035 131.04 75.089 131.192 75.0905 131.368C75.093 131.661 74.9497 132.037 74.6606 132.496ZM78.823 152.8C79.4931 153.052 80.2617 153.174 81.1289 153.167C82.1718 153.158 83.1606 152.986 84.0953 152.65C85.1703 152.277 86.0621 151.713 86.7705 150.957C87.7617 150.374 88.7054 149.722 89.6017 148.999C90.5097 148.277 91.3872 147.414 92.2342 146.411L90.7225 146.423C90.0829 147.003 89.2267 147.614 88.1539 148.256C88.2451 147.95 88.2881 147.493 88.283 146.883C88.2772 146.204 88.2353 145.407 88.1572 144.494C88.0686 143.709 87.9585 142.48 87.8272 140.805C87.6962 139.177 87.5475 136.841 87.3811 133.795L82.061 134.543C81.4454 136.576 80.7992 138.45 80.1223 140.167C79.4454 141.884 78.6452 143.578 77.7219 145.25C77.1966 145.501 76.7606 145.909 76.4138 146.474C76.0208 147.11 75.8276 147.821 75.8342 148.606C75.8391 149.18 75.9493 149.736 76.1647 150.273C76.3801 150.799 76.7006 151.277 77.1261 151.707C77.5871 152.172 78.1527 152.536 78.823 152.8ZM82.118 149.573C81.5831 150.069 80.8645 150.321 79.9622 150.329C79.1771 150.336 78.6129 150.141 78.2697 149.746C77.9264 149.338 77.7511 148.701 77.7438 147.834C77.8391 148.021 77.9632 148.149 78.1162 148.218C78.2807 148.275 78.4802 148.302 78.7145 148.301C79.1833 148.297 79.5684 148.106 79.8699 147.728C80.1482 147.386 80.2854 146.981 80.2815 146.512C80.277 145.984 79.9981 145.571 79.4448 145.271C80.1017 143.964 80.66 142.776 81.1197 141.706C81.5793 140.624 81.9744 139.536 82.305 138.444L82.5189 140.868C82.6347 142.085 82.7492 143.157 82.8625 144.082L82.9595 145.153C83.0243 145.879 83.0587 146.482 83.0627 146.963C83.0725 148.111 82.7576 148.981 82.118 149.573ZM182.226 128.491L176.906 129.24L172.214 152.185L177.381 152.141L179.492 141.857L179.685 141.855C181.244 141.842 182.665 141.555 183.949 140.993C185.245 140.419 186.358 139.648 187.287 138.679C188.17 137.77 188.841 136.738 189.3 135.586C189.771 134.434 190.001 133.277 189.992 132.117C189.984 131.168 189.806 130.273 189.459 129.432C189.124 128.591 188.614 127.851 187.929 127.213C186.381 125.784 184.219 125.082 181.442 125.105C179.473 125.122 177.496 125.59 175.512 126.509C174.566 126.951 173.686 127.474 172.871 128.078C172.067 128.671 171.375 129.31 170.795 129.995C170.18 130.715 169.706 131.463 169.373 132.239C169.039 133.004 168.876 133.779 168.883 134.564C168.893 135.818 169.235 136.723 169.908 137.28C170.51 137.79 171.461 138.04 172.762 138.029C172.761 137.947 172.737 137.865 172.689 137.783C172.618 137.667 172.558 137.533 172.51 137.381C172.342 136.937 172.255 136.34 172.249 135.59C172.237 134.231 172.432 133.004 172.833 131.911C173.246 130.818 173.853 129.892 174.655 129.136C175.457 128.379 176.431 127.796 177.576 127.388C178.733 126.98 180.038 126.77 181.491 126.757C182.253 126.751 182.922 126.874 183.498 127.127C184.074 127.368 184.552 127.716 184.931 128.17C185.63 129.066 185.985 130.217 185.997 131.624C186.008 132.96 185.75 134.274 185.222 135.568C184.683 136.92 183.948 138.04 183.018 138.927C181.995 139.908 180.915 140.444 179.779 140.536L182.226 128.491ZM194.191 131.836C194.543 131.973 194.913 132.04 195.3 132.037C195.686 132.034 196.055 131.96 196.405 131.817C196.756 131.661 197.064 131.454 197.332 131.194C197.599 130.945 197.802 130.645 197.939 130.292C198.089 129.939 198.162 129.569 198.158 129.183C198.155 128.796 198.076 128.428 197.921 128.077C197.777 127.727 197.569 127.418 197.297 127.151C197.026 126.884 196.713 126.681 196.361 126.544C196.008 126.394 195.638 126.321 195.251 126.324C194.865 126.328 194.496 126.407 194.146 126.562C193.796 126.706 193.493 126.914 193.237 127.185C192.982 127.457 192.779 127.769 192.63 128.122C192.492 128.475 192.425 128.845 192.428 129.231C192.431 129.618 192.505 129.986 192.649 130.337C192.804 130.687 193.011 130.984 193.271 131.228C193.531 131.484 193.838 131.686 194.191 131.836ZM190.294 151.223C190.968 151.897 191.879 152.229 193.027 152.219C193.847 152.212 194.631 152.065 195.379 151.777C196.407 151.382 197.327 150.741 198.14 149.855C199.104 148.769 199.9 147.315 200.529 145.493L199.017 145.506C198.733 146.458 198.305 147.223 197.736 147.802C197.457 148.086 197.149 148.311 196.81 148.478C196.483 148.633 196.144 148.712 195.793 148.715C195.277 148.72 194.901 148.623 194.665 148.426C194.441 148.229 194.326 147.884 194.322 147.392C194.318 146.923 194.362 146.536 194.453 146.23L196.933 133.974L191.748 134.018L189.403 145.588C189.223 146.48 189.136 147.266 189.141 147.945C189.153 149.387 189.538 150.479 190.294 151.223ZM206.125 135.848L208.129 135.831L199.09 151.957L208.634 151.876C209.302 151.87 209.905 151.748 210.442 151.509C210.991 151.27 211.462 150.95 211.857 150.548C212.229 150.17 212.513 149.757 212.708 149.31C212.904 148.851 213 148.411 212.996 147.989C212.992 147.474 212.853 147.059 212.581 146.745C212.321 146.431 211.921 146.276 211.382 146.28C210.784 146.285 210.288 146.459 209.892 146.803C209.729 146.956 209.602 147.127 209.51 147.316C209.429 147.492 209.39 147.668 209.391 147.844C209.393 148.055 209.447 148.23 209.554 148.37C209.672 148.498 209.848 148.573 210.083 148.594C210.027 148.864 209.853 149.053 209.561 149.161C209.268 149.269 208.876 149.325 208.384 149.329C207.88 149.333 207.382 149.303 206.889 149.236L205.658 149.124L214.353 133.827L205.089 133.905C204.48 133.911 203.913 134.033 203.387 134.271C202.874 134.498 202.431 134.807 202.059 135.197C201.711 135.551 201.439 135.946 201.243 136.381C201.047 136.805 200.951 137.204 200.954 137.579C200.958 138.071 201.138 138.462 201.492 138.752C201.822 139.019 202.198 139.151 202.62 139.147C203.136 139.143 203.58 138.987 203.952 138.679C204.348 138.336 204.543 137.848 204.537 137.215C204.535 137.004 204.517 136.858 204.481 136.776C204.398 136.636 204.309 136.555 204.215 136.532C204.168 136.521 204.144 136.486 204.144 136.427C204.142 136.181 204.334 136.021 204.72 135.948C205.012 135.887 205.481 135.853 206.125 135.848ZM221.558 135.717L223.562 135.7L214.523 151.826L224.067 151.745C224.735 151.74 225.338 151.617 225.875 151.378C226.424 151.139 226.895 150.819 227.291 150.417C227.662 150.039 227.946 149.626 228.141 149.179C228.337 148.721 228.433 148.28 228.429 147.859C228.425 147.343 228.286 146.928 228.014 146.614C227.754 146.3 227.354 146.145 226.815 146.15C226.217 146.155 225.721 146.329 225.325 146.672C225.162 146.826 225.035 146.997 224.943 147.185C224.862 147.361 224.823 147.538 224.824 147.713C224.826 147.924 224.88 148.1 224.987 148.239C225.105 148.367 225.282 148.442 225.516 148.463C225.46 148.733 225.286 148.922 224.994 149.03C224.701 149.138 224.309 149.194 223.817 149.199C223.313 149.203 222.815 149.172 222.322 149.106L221.091 148.993L229.786 133.696L220.522 133.775C219.913 133.78 219.346 133.902 218.82 134.141C218.307 134.368 217.864 134.676 217.492 135.066C217.144 135.421 216.872 135.815 216.676 136.251C216.48 136.674 216.384 137.074 216.387 137.449C216.391 137.941 216.571 138.332 216.925 138.622C217.255 138.888 217.631 139.02 218.053 139.016C218.569 139.012 219.013 138.856 219.385 138.548C219.781 138.205 219.976 137.717 219.97 137.084C219.969 136.873 219.95 136.727 219.914 136.645C219.831 136.505 219.742 136.424 219.648 136.401C219.601 136.39 219.577 136.355 219.577 136.296C219.575 136.05 219.767 135.891 220.153 135.817C220.445 135.756 220.914 135.723 221.558 135.717ZM230.949 150.615C231.8 151.463 232.911 151.881 234.282 151.87C235.465 151.86 236.534 151.499 237.489 150.788C238.235 150.242 238.943 149.486 239.615 148.52C239.753 149.608 240.123 150.432 240.726 150.989C241.34 151.535 242.156 151.803 243.176 151.794C243.973 151.788 244.727 151.641 245.44 151.353C246.365 150.976 247.198 150.375 247.938 149.551L247.533 151.547L252.719 151.503L255.485 137.803C256.02 137.306 256.463 136.951 256.812 136.737C257.162 136.523 257.589 136.414 258.093 136.41C258.269 136.408 258.398 136.466 258.481 136.582C258.588 136.745 258.696 137.078 258.806 137.581C258.843 137.769 258.909 137.961 259.004 138.16C259.111 138.358 259.259 138.509 259.448 138.613C259.636 138.717 259.888 138.768 260.205 138.765C260.615 138.761 260.983 138.682 261.31 138.527C261.649 138.372 261.934 138.164 262.166 137.905C262.375 137.657 262.531 137.38 262.634 137.074C262.737 136.769 262.787 136.452 262.784 136.124C262.781 135.761 262.725 135.421 262.617 135.106C262.509 134.778 262.348 134.493 262.135 134.248C261.662 133.702 261.038 133.432 260.265 133.438C259.503 133.445 258.726 133.68 257.933 134.143C257.42 134.452 256.756 134.974 255.942 135.707L256.38 133.471L251.195 133.515L248.846 145.084L248.832 145.084C248.548 146.118 248.18 146.918 247.727 147.484C247.194 148.157 246.599 148.496 245.943 148.501C244.959 148.51 244.462 147.998 244.453 146.967C244.45 146.545 244.499 146.158 244.602 145.806L247.082 133.55L241.897 133.594L241.526 135.513L241.524 135.249C241.519 134.698 241.269 134.261 240.774 133.937C240.291 133.601 239.563 133.438 238.591 133.446C236.634 133.462 234.911 134.198 233.423 135.652C232.133 136.928 231.122 138.601 230.39 140.67C230.069 141.587 229.831 142.515 229.675 143.453C229.507 144.392 229.427 145.284 229.434 146.127C229.451 148.12 229.956 149.615 230.949 150.615ZM237.432 148.152C237.14 148.295 236.859 148.367 236.59 148.37C236.356 148.372 236.144 148.35 235.957 148.305C235.769 148.259 235.598 148.155 235.444 147.993C234.995 147.574 234.766 146.768 234.756 145.573C234.751 144.998 234.798 144.359 234.898 143.655C234.997 142.94 235.149 142.218 235.354 141.489C235.797 139.845 236.366 138.51 237.06 137.484C237.454 136.919 237.872 136.475 238.315 136.155C238.769 135.835 239.236 135.673 239.717 135.669C240.221 135.665 240.615 135.831 240.899 136.169C240.994 136.308 241.065 136.46 241.114 136.624C241.174 136.776 241.204 136.91 241.205 137.027L239.551 145.163C239.348 146.137 238.933 146.932 238.306 147.546C238.027 147.807 237.735 148.008 237.432 148.152ZM267.172 131.217C267.525 131.355 267.895 131.422 268.281 131.419C268.668 131.416 269.037 131.342 269.387 131.199C269.737 131.043 270.046 130.836 270.313 130.576C270.581 130.327 270.783 130.027 270.921 129.674C271.07 129.321 271.143 128.951 271.14 128.565C271.137 128.178 271.058 127.809 270.902 127.459C270.759 127.109 270.551 126.8 270.279 126.533C270.007 126.265 269.695 126.063 269.342 125.925C268.99 125.776 268.62 125.703 268.233 125.706C267.846 125.71 267.478 125.789 267.128 125.944C266.777 126.088 266.474 126.295 266.219 126.567C265.963 126.839 265.761 127.151 265.611 127.504C265.474 127.857 265.407 128.226 265.41 128.613C265.413 129 265.487 129.368 265.63 129.719C265.786 130.069 265.993 130.366 266.253 130.61C266.513 130.866 266.819 131.068 267.172 131.217ZM263.276 150.605C263.95 151.279 264.861 151.611 266.009 151.601C266.829 151.594 267.613 151.447 268.361 151.159C269.389 150.764 270.309 150.123 271.122 149.237C271.392 148.933 271.649 148.599 271.893 148.237C272.145 149.052 272.535 149.725 273.064 150.258C273.915 151.106 275.026 151.525 276.397 151.513C277.581 151.503 278.65 151.142 279.605 150.431C280.35 149.886 281.059 149.13 281.73 148.163C281.869 149.252 282.239 150.075 282.841 150.632C283.455 151.178 284.272 151.446 285.291 151.438C286.088 151.431 286.843 151.284 287.555 150.997C288.525 150.602 289.392 149.961 290.158 149.076C291.063 148.002 291.83 146.548 292.459 144.715L290.948 144.727C290.664 145.761 290.295 146.561 289.843 147.127C289.31 147.8 288.715 148.139 288.059 148.145C287.074 148.153 286.578 147.641 286.569 146.61C286.565 146.188 286.615 145.801 286.717 145.449L289.198 133.193L284.012 133.237L283.642 135.156L283.64 134.892C283.635 134.342 283.385 133.904 282.89 133.58C282.407 133.245 281.679 133.081 280.706 133.089C278.749 133.106 277.027 133.841 275.539 135.295C274.249 136.572 273.238 138.244 272.505 140.313C272.185 141.23 271.947 142.158 271.791 143.097C271.623 144.036 271.542 144.927 271.55 145.771C271.55 145.851 271.552 145.931 271.554 146.01C271.322 146.462 271.043 146.853 270.718 147.184C270.439 147.468 270.13 147.693 269.792 147.86C269.465 148.015 269.126 148.094 268.774 148.097C268.259 148.101 267.883 148.005 267.647 147.808C267.422 147.61 267.308 147.266 267.304 146.773C267.3 146.305 267.344 145.918 267.435 145.612L269.915 133.356L264.73 133.4L262.384 144.969C262.204 145.862 262.117 146.647 262.123 147.327C262.135 148.768 262.519 149.861 263.276 150.605ZM279.548 147.795C279.256 147.938 278.975 148.011 278.706 148.013C278.471 148.015 278.26 147.993 278.072 147.948C277.884 147.903 277.714 147.799 277.56 147.636C277.111 147.218 276.881 146.411 276.871 145.216C276.866 144.642 276.914 144.003 277.013 143.299C277.113 142.583 277.265 141.861 277.47 141.132C277.913 139.488 278.481 138.153 279.176 137.128C279.57 136.562 279.988 136.119 280.43 135.799C280.885 135.478 281.352 135.316 281.833 135.312C282.336 135.308 282.73 135.474 283.015 135.812C283.109 135.952 283.181 136.103 283.229 136.267C283.289 136.419 283.32 136.553 283.321 136.671L281.667 144.806C281.464 145.78 281.049 146.575 280.421 147.19C280.142 147.45 279.851 147.652 279.548 147.795Z" fill="white"/>
</svg>
