<svg width="865" height="500" viewBox="0 0 865 500" fill="none" xmlns="http://www.w3.org/2000/svg">
<g clip-path="url(#clip0_23_200)">
<rect width="865" height="500" fill="white"/>
<path d="M29 155C29 137.327 43.3269 123 61 123L803 123C820.673 123 835 137.327 835 155L835 272C835 289.673 820.673 304 803 304L61 304C43.3269 304 29 289.673 29 272L29 155Z" fill="#0143C2"/>
<path d="M411.358 483H409.511L414.852 468.455H416.67L422.011 483H420.165L415.818 470.756H415.705L411.358 483ZM412.04 477.318H419.483V478.881H412.04V477.318ZM435.925 474.946V476.509H429.561V474.946H435.925ZM444.243 483V481.722L452.084 470.017H444.158V468.455H454.186V469.733L446.346 481.438H454.272V483H444.243Z" fill="white"/>
</g>
<defs>
<clipPath id="clip0_23_200">
<rect width="865" height="500" fill="white"/>
</clipPath>
</defs>
</svg>
