<svg width="264" height="278" viewBox="0 0 264 278" fill="none" xmlns="http://www.w3.org/2000/svg">
<path d="M223.27 92.5057C223.862 92.3667 224.445 92.1026 224.984 91.7289C225.524 91.3551 226.01 90.8791 226.414 90.3285C226.818 89.7778 227.132 89.1634 227.338 88.5208C227.544 87.8782 227.637 87.2203 227.613 86.5851C227.558 85.2934 227.031 84.1734 226.146 83.4674C225.261 82.7614 224.089 82.5259 222.884 82.812C222.294 82.9475 221.713 83.2085 221.176 83.5798C220.638 83.951 220.154 84.4249 219.752 84.9736C219.351 85.5223 219.039 86.1348 218.837 86.775C218.634 87.4152 218.545 88.0702 218.573 88.7016C218.628 89.9893 219.15 91.1075 220.027 91.8181C220.904 92.5286 222.068 92.7754 223.27 92.5057Z" fill="black"/>
<path d="M219.138 121.346C218.546 121.487 217.965 121.753 217.426 122.128C216.888 122.503 216.404 122.981 216.002 123.532C215.6 124.084 215.288 124.699 215.084 125.341C214.881 125.984 214.79 126.641 214.817 127.275C214.872 128.561 215.395 129.677 216.273 130.383C217.152 131.089 218.317 131.329 219.517 131.052C220.109 130.913 220.691 130.649 221.231 130.276C221.77 129.902 222.256 129.426 222.66 128.876C223.064 128.325 223.377 127.711 223.583 127.069C223.789 126.427 223.882 125.769 223.858 125.134C223.793 123.849 223.264 122.736 222.384 122.029C221.504 121.323 220.34 121.078 219.138 121.346Z" fill="black"/>
<path d="M211.234 159.369C209.629 158.606 202.423 158.393 200.4 157.435C196.235 155.396 195.554 151.776 199.324 149.142C200.987 147.972 207.956 146.005 209.543 144.785C213.618 141.802 210.067 135.602 206.041 138.619C204.402 139.833 199.99 146.365 198.355 147.654C195.357 149.934 191.734 148.14 191.756 145.265C191.814 142.827 194.521 135 194.546 132.996C194.58 128.105 187.436 129.062 187.387 133.94C187.376 135.859 190.128 143.385 188.586 147.292C183.112 141.87 183.869 131.798 185.3 124.761C187.832 123.156 190.325 121.672 192.837 120.365C195.51 126.121 201.592 128.828 208.278 125.824C208.701 125.636 209.242 125.408 209.845 125.168C210.643 127.436 212.079 129.269 213.977 130.445C216.209 131.801 218.965 132.181 221.738 131.525C224.904 130.78 227.905 128.72 230.087 125.794C232.27 122.869 233.458 119.313 233.394 115.902C247.112 109.887 260.996 101.95 260.769 93.4987C260.538 84.93 246.145 83.671 232.083 84.2422C231.87 80.8542 230.432 77.9392 228.073 76.1132C225.714 74.2871 222.618 73.693 219.44 74.4564C217.848 74.8169 216.278 75.5188 214.825 76.5204C213.372 77.5219 212.065 78.8027 210.982 80.2864C209.65 82.1065 208.763 84.1379 208.259 86.2284C207.632 86.2759 207.075 86.3105 206.64 86.3181C199.501 86.5104 193.614 92.545 191.723 99.888C186.075 100.133 178.662 99.7521 169.922 97.7588C165.644 94.6675 155.877 85.6996 170.807 76.8374C171.412 80.6156 167.722 88.1592 167.468 89.9981C166.629 95.4228 173.876 94.9058 174.676 89.4706C174.96 87.488 173.355 80.2182 173.682 77.7742C174.087 74.8946 178.136 72.3664 180.88 74.0167C182.371 74.969 185.919 80.6074 187.397 81.4889C191.012 83.6515 195.608 76.7388 191.952 74.5981C190.476 73.7135 183.618 73.165 182.085 72.3394C178.575 70.4908 179.847 66.7167 184.449 63.8208C186.693 62.448 194.165 60.7572 195.93 59.6576C200.761 56.5997 198.16 50.2391 193.271 53.2743C191.512 54.3985 186.03 60.8452 183.81 62.2703C179.206 65.1647 175.997 64.2164 176.806 59.6557C177.162 57.6326 180.843 50.4608 181.1 48.4877C181.882 43.4999 174.613 44.0371 173.899 48.9904C173.59 51.004 175.214 57.8403 174.976 59.8888C174.466 63.5913 170.434 66.1039 168.311 64.8397C166.525 63.7335 162.67 57.8828 161.188 56.9952C157.547 54.8467 152.986 61.7422 156.598 63.8986C157.952 64.6961 164.896 65.4245 167.149 68.1209C162.459 70.4714 144.941 80.4418 151.211 95.6531C134.746 95.286 111.177 97.7116 87.1582 107.011C82.2279 105.814 76.1552 101.869 84.8733 89.0373C87.4101 91.3677 87.3771 99.6189 88.0104 101.213C89.7342 105.849 96.4493 101.348 94.6697 96.7246C94.0175 95.0431 89.085 90.3706 88.2526 88.3123C87.2953 85.877 89.9909 81.6444 93.3954 81.3589C95.2681 81.2412 101.304 83.56 103.132 83.3979C107.605 83.0109 108.781 75.1067 104.279 75.5308C102.448 75.6868 95.6199 79.1517 93.7624 79.3804C89.5402 79.9538 88.9976 76.3325 92.0502 71.5066C93.5542 69.1841 99.9272 63.6568 101.105 61.8146C104.302 56.7286 98.8436 53.323 95.572 58.4188C94.4169 60.2746 92.1716 68.3312 90.7121 70.6766C87.6489 75.5088 84.1296 76.5941 82.7768 72.6375C82.1723 70.8831 82.3485 63.2957 81.6762 61.6359C80.0893 57.3631 73.378 61.8916 75.0088 66.0978C75.6572 67.8194 80.4115 72.1461 81.1315 73.8519C82.3762 76.9794 79.6894 81.1919 77.0612 81.4274C74.8284 81.5892 68.4025 79.2838 66.5606 79.4414C62.0705 79.8562 60.9197 87.7295 65.3904 87.3411C67.0189 87.1896 73.6984 83.9693 77.2147 84.5237C73.9311 88.8699 63.2346 104.584 72.9784 113.309L72.9332 113.332C52.6276 123.67 13.5844 160.96 43.8236 205.285C73.3285 248.527 145.493 249.229 192.12 195.466C192.12 195.466 124.194 256.168 77.7305 207.822C63.6697 193.174 50.0225 166.142 82.5559 159.043C86.7504 158.13 91.2205 157.5 95.7201 157.001C90.0133 172.248 100.663 180.963 106.853 184.585C104.348 187.966 96.4915 189.521 94.8769 190.554C90.2646 193.359 93.1571 200.037 97.765 197.166C99.4392 196.113 104.69 189.701 106.749 188.394C109.182 186.856 112.582 189.079 112.205 192.838C111.963 194.917 108.68 202.118 108.482 204.136C107.995 209.066 115.084 208.894 115.536 203.93C115.743 201.91 113.83 194.915 113.968 192.878C114.236 188.252 117.682 186.965 121.567 189.474C123.429 190.72 127.339 196.816 128.817 197.782C132.908 200.407 137.091 193.647 133 190.945C131.503 190.002 124.486 189.004 122.592 187.81C118.705 185.292 118.363 181.555 122.275 179.292C124.008 178.283 130.994 177.043 132.655 175.978C136.896 173.393 133.985 166.729 129.784 169.356C128.072 170.402 123.177 176.552 121.464 177.679C118.332 179.661 114.949 177.449 115.232 174.545C115.505 172.077 118.848 164.442 119.054 162.412C119.514 157.457 112.459 157.658 111.971 162.592C111.795 164.516 113.756 172.257 112.015 176.107C107.198 171.696 106.547 166.24 108.107 161.139C108.65 159.424 110.088 157.125 113.162 155.404C118.219 154.939 122.838 154.391 126.569 153.511C146.21 148.877 159.748 141.379 170.919 134.207C167.106 147.796 177.74 153.55 184.321 155.771C182.284 159.479 174.131 161.91 172.552 163.118C168.131 166.362 171.654 172.562 176.068 169.263C177.677 168.052 182.422 161.226 184.393 159.713C186.726 157.949 190.378 159.752 190.325 163.466C190.263 165.524 187.576 172.917 187.556 174.907C187.505 179.788 194.678 178.844 194.69 173.948C194.713 171.952 192.155 165.324 192.108 163.315C191.969 158.768 195.347 157.135 199.51 159.164C201.508 160.187 206.016 165.717 207.602 166.507C211.987 168.624 215.618 161.567 211.234 159.369ZM95.1362 222.915C97.3883 224.068 99.7548 225.003 102.214 225.71C98.3695 229.66 98.7944 229.855 101.566 234.287C98.6975 234.16 95.8797 233.865 93.1404 233.35C88.6125 226.569 89.0265 225.209 95.1362 222.915ZM72.0156 204.985C73.3506 206.742 76.9243 210.653 77.3543 211.071C69.7097 214.647 77.1197 218.873 74.1792 227.203C67.2117 224.726 64.6046 222.047 64.6046 222.047C66.8499 215.195 62.0332 206.983 72.0156 204.985ZM60.7462 177.977C60.3431 181.418 61.1291 185.119 62.6256 188.811C47.5064 189.499 51.599 185.92 45.9352 203.823C45.9352 203.823 41.1231 198.24 39.6127 192.783C50.3121 168.816 48.3042 184.962 60.7462 177.977ZM62.5102 170.463C56.127 137.58 55.0329 159.757 39.1197 152.802C40.8741 148.379 43.1862 144.153 45.9777 140.266C50.7731 147.76 73.3209 124.121 71.0905 160.975C66.2516 163.418 63.6061 166.714 62.5102 170.463ZM85.4524 156.103C73.7119 124.728 98.9524 142.003 74.6146 115.13C78.7783 113.029 83.0007 111.155 87.2639 109.518C124.902 139.37 87.137 121.386 98.6963 154.343C94.2419 154.767 89.7386 155.288 85.4524 156.103ZM117.568 152.232C109.701 113.531 145.658 123.855 117.789 101.131C117.789 101.131 125.068 99.3227 130.828 99.2678C168.81 136.484 125.761 121.211 131.233 149.592C131.238 149.59 124.882 152.079 117.568 152.232ZM169.869 132.682C169.869 132.682 162.86 137.972 154.721 141.268C156.635 120.543 175.537 126.324 157.144 98.2025C161.593 98.496 168.741 99.8323 169.196 99.9387C172.739 117.018 186.432 109.309 169.869 132.682ZM221.638 128.143C219.559 128.636 217.52 128.352 215.858 127.338C214.771 126.682 213.877 125.738 213.239 124.573C212.602 123.408 212.237 122.052 212.17 120.6C212.118 119.334 212.3 118.022 212.708 116.739C213.115 115.456 213.739 114.229 214.543 113.129C215.347 112.029 216.315 111.078 217.391 110.331C218.467 109.584 219.63 109.056 220.811 108.778C222.895 108.29 224.938 108.578 226.604 109.596C228.728 110.886 230.152 113.283 230.271 116.312C230.325 117.578 230.143 118.89 229.736 120.173C229.33 121.456 228.707 122.684 227.904 123.784C227.1 124.885 226.133 125.838 225.057 126.586C223.982 127.334 222.82 127.864 221.638 128.143ZM219.536 77.8231C221.614 77.325 223.653 77.6061 225.315 78.6196C226.398 79.2732 227.289 80.2143 227.924 81.3754C228.559 82.5364 228.923 83.8888 228.988 85.3354C229.043 86.6016 228.862 87.9148 228.455 89.1982C228.048 90.4816 227.424 91.7092 226.618 92.8092C225.813 93.9092 224.843 94.8593 223.765 95.6039C222.687 96.3486 221.523 96.8727 220.341 97.1456C218.273 97.639 216.244 97.3567 214.592 96.3458C213.506 95.6904 212.614 94.7467 211.978 93.5823C211.342 92.4179 210.98 91.0619 210.916 89.6115C210.854 88.3483 211.031 87.0364 211.434 85.7537C211.837 84.471 212.459 83.2436 213.263 82.1442C214.067 81.0449 215.036 80.0959 216.114 79.3537C217.191 78.6114 218.355 78.0909 219.536 77.8231Z" fill="url(#paint0_linear_4_2)"/>
<defs>
<linearGradient id="paint0_linear_4_2" x1="188.253" y1="45.7609" x2="75.3118" y2="231.636" gradientUnits="userSpaceOnUse">
<stop stop-color="#278B1F"/>
<stop offset="1" stop-color="#37FF25"/>
</linearGradient>
</defs>
</svg>
