<svg width="128" height="128" viewBox="0 0 128 128" fill="none" xmlns="http://www.w3.org/2000/svg">
<path d="M64 18.6667C55.2203 18.6663 46.6293 21.2154 39.2707 26.0044C31.9121 30.7933 26.1024 37.6161 22.5474 45.6439C18.9923 53.6716 17.8449 62.559 19.2444 71.2265C20.644 79.8939 24.5303 87.9685 30.4313 94.4694C36.3324 100.97 43.9942 105.618 52.4861 107.847C60.978 110.077 69.9346 109.792 78.268 107.029C86.6015 104.265 93.953 99.1411 99.4298 92.279C104.907 85.4169 108.273 77.1121 109.12 68.3733C109.168 67.8513 109.061 67.3267 108.813 66.865C108.565 66.4033 108.186 66.025 107.724 65.7774C107.262 65.5299 106.737 65.424 106.215 65.4731C105.693 65.5222 105.197 65.724 104.789 66.0533C102.033 68.2836 98.8599 69.9419 95.4551 70.9312C92.0504 71.9204 88.4825 72.2208 84.9603 71.8146C81.4381 71.4085 78.0323 70.3041 74.942 68.566C71.8517 66.8279 69.1391 64.4909 66.9628 61.6919C64.7865 58.8929 63.1902 55.688 62.2673 52.2647C61.3445 48.8413 61.1135 45.2683 61.588 41.7547C62.0625 38.2411 63.2329 34.8573 65.0308 31.8014C66.8286 28.7455 69.2179 26.0788 72.0587 23.9573C72.4802 23.6424 72.7991 23.2098 72.9753 22.7139C73.1515 22.2181 73.177 21.6812 73.0487 21.1709C72.9205 20.6606 72.644 20.1996 72.2543 19.8461C71.8646 19.4925 71.379 19.2622 70.8587 19.184C68.5887 18.8394 66.296 18.6664 64 18.6667Z" fill="black"/>
</svg>
