<svg width="20" height="20" viewBox="0 0 132 132" fill="none" xmlns="http://www.w3.org/2000/svg">
<path d="M38.4725 66C38.4725 81.1855 50.8255 93.5385 66.011 93.5385C81.1965 93.5385 93.5495 81.1855 93.5495 66C93.5495 50.8145 81.1965 38.4615 66.011 38.4615C50.8255 38.4615 38.4725 50.8145 38.4725 66ZM60.5 104.5H71.5V121H60.5V104.5ZM60.5 11H71.5V27.5H60.5V11ZM11 60.5H27.5V71.5H11V60.5ZM104.5 60.5H121V71.5H104.5V60.5ZM31.0035 108.779L23.2265 101.002L34.892 89.3365L42.669 97.1135L31.0035 108.779ZM89.331 34.892L101.002 23.221L108.779 30.998L97.108 42.669L89.331 34.892ZM34.892 42.6745L23.2265 31.0035L31.009 23.2265L42.669 34.8975L34.892 42.6745ZM108.779 101.002L101.002 108.779L89.331 97.108L97.108 89.331L108.779 101.002Z" fill="black"/>
</svg>
