<svg width="15" height="15" viewBox="0 0 107 107" fill="none" xmlns="http://www.w3.org/2000/svg">
<path d="M53.5 13.1154V1M24.944 24.944L16.3785 16.3785M13.1154 53.5H1M53.5 106V93.8846M90.6215 90.6215L82.056 82.06M106 53.5H93.8846M24.944 82.056L16.3785 90.6215M90.6215 16.3785L82.06 24.944M77.7308 53.5C77.7308 59.9264 75.1779 66.0896 70.6337 70.6337C66.0896 75.1779 59.9264 77.7308 53.5 77.7308C47.0736 77.7308 40.9104 75.1779 36.3663 70.6337C31.8221 66.0896 29.2692 59.9264 29.2692 53.5C29.2692 47.0736 31.8221 40.9104 36.3663 36.3663C40.9104 31.8221 47.0736 29.2692 53.5 29.2692C59.9264 29.2692 66.0896 31.8221 70.6337 36.3663C75.1779 40.9104 77.7308 47.0736 77.7308 53.5Z" stroke="black" stroke-width="2" stroke-linecap="round" stroke-linejoin="round"/>
</svg>
